<?xml version="1.0" encoding="UTF-8" standalone="no"?>
<!-- Created with Inkscape (http://www.inkscape.org/) -->

<svg
   xmlns:dc="http://purl.org/dc/elements/1.1/"
   xmlns:cc="http://creativecommons.org/ns#"
   xmlns:rdf="http://www.w3.org/1999/02/22-rdf-syntax-ns#"
   xmlns:svg="http://www.w3.org/2000/svg"
   xmlns="http://www.w3.org/2000/svg"
   xmlns:sodipodi="http://sodipodi.sourceforge.net/DTD/sodipodi-0.dtd"
   xmlns:inkscape="http://www.inkscape.org/namespaces/inkscape"
   id="svg3004"
   version="1.1"
   inkscape:version="0.48.3.1 r9886"
   width="712.89142"
   height="393.78189"
   xml:space="preserve"
   sodipodi:docname="Panda_d'orange.svg"><metadata
     id="metadata3010"><rdf:RDF><cc:Work
         rdf:about=""><dc:format>image/svg+xml</dc:format><dc:type
           rdf:resource="http://purl.org/dc/dcmitype/StillImage" /><dc:title></dc:title></cc:Work></rdf:RDF></metadata><defs
     id="defs3008"><clipPath
       clipPathUnits="userSpaceOnUse"
       id="clipPath3018"><path
         d="m 0,377.143 624.714,0 L 624.714,0 0,0 0,377.143 z"
         id="path3020"
         inkscape:connector-curvature="0" /></clipPath><clipPath
       clipPathUnits="userSpaceOnUse"
       id="clipPath3026"><path
         d="m -0.329102,415.43 641.044102,0 0,-480.0003 -641.044102,0 0,480.0003 z"
         id="path3028"
         inkscape:connector-curvature="0" /></clipPath></defs><sodipodi:namedview
     pagecolor="#ffffff"
     bordercolor="#666666"
     borderopacity="1"
     objecttolerance="10"
     gridtolerance="10"
     guidetolerance="10"
     inkscape:pageopacity="0"
     inkscape:pageshadow="2"
     inkscape:window-width="1366"
     inkscape:window-height="720"
     id="namedview3006"
     showgrid="false"
     inkscape:zoom="0.93"
     inkscape:cx="387.96423"
     inkscape:cy="151.25"
     inkscape:window-x="-4"
     inkscape:window-y="27"
     inkscape:window-maximized="1"
     inkscape:current-layer="g3012"
     fit-margin-left="10"
     fit-margin-right="10"
     fit-margin-bottom="10"
     fit-margin-top="10" /><g
     id="g3012"
     inkscape:groupmode="layer"
     inkscape:label="Panda d'orange"
     transform="matrix(1.25,0,0,-1.25,-12.276814,461.81901)"><path
       d="m 280.7148,112.4297 c 1.022,4.296 -5.104,7.716 0,10 0.605,-2.062 -1.614,-6.947 2,-6 6.36,21.972 -2.308,46.347 -22,45 0.11,-4.891 6.847,-3.152 8,-7 -3.331,1.669 -7.31,2.69 -10,5 3.763,12.241 6.682,30.647 10,40 -3.789,-4.211 -4.295,-11.705 -7,-17 0.415,15.375 -3.501,35.205 2,49 -0.008,16.992 -8.812,25.188 -13,38 -3.536,1.797 -6.203,4.464 -8,8 -3.458,0.813 -4.222,-1.867 -6,0 -3.762,11.046 -6.76,17.285 -7,27 -1.72,0.395 -2.563,-1.484 -3,0 7.083,6.872 2.322,14.609 -2,22 5.935,8.249 6.374,24.935 0,33 -13.97,1.304 -19.677,-5.656 -30,-8 -11.199,7.633 -34.186,7.094 -49,3 1.871,0.054 2.117,-0.77 1,-2 -6.31,1.186 -7.334,0.07 -11,1 -9.21,2.337 -17.412,12.223 -27,6 -3.695,-6.85 -12.062,-8.972 -8,-21 1.613,-1.386 5.155,-0.845 6,-3 -3.773,-5.56 -8.462,-10.205 -14,-14 0.345,-8.928 -0.335,-10.854 -4,-16 8.258,-3.202 5.507,-18.368 -5,-20 -1.794,-8.267 -10.494,-10.848 -15,-17 -2.81,-3.836 -2.406,-10.213 -8,-12 -2.396,-9.777 -5.992,-22.354 -3,-34 3.21,0.237 4.927,-7.049 5,-13 -6.224,-9.109 -14.673,-15.993 -15,-31 -2.826,0.826 -2.591,-1.409 -5,-1 -0.409,-2.409 1.826,-2.174 1,-5 -1.916,-3.05 -7.212,-5.291 -9,-7 -20.752,-19.84 -23.121,-45.259 -3,-66 -3.576,-3.155 -2.157,-6.286 -5,-11 5.579,-12.421 13.116,-22.885 28,-26 9.979,2.493 20.45,-0.733 29,2 1.602,3.936 -4.319,0.348 -4,3 10.437,-0.438 14.873,5.128 22,8 0.222,5.444 0.983,10.35 5,12 2.077,-0.257 0.273,-4.394 2,-5 25.933,-3.308 51.734,-5.864 77,-1 -3.695,0.638 -9.961,-1.295 -12,1 16.705,1.038 24.664,10.618 42,6 1.422,-32.711 50.446,-22.674 60,-4 l 4,0 c 0.024,6.055 7.531,9.167 8,15 -1.496,0.17 -3.69,-0.357 -4,1 2.899,5.143 5.194,12.229 3,15 -0.908,-2.092 -2.951,-3.049 -6,-3"
       style="fill:#ffffff;fill-opacity:1;fill-rule:evenodd;stroke:none"
       id="path3180"
       inkscape:connector-curvature="0"
       sodipodi:nodetypes="ccccccccccccccccccccccccccccccccccccccccccccccccccc" /><path
       id="path3188"
       style="fill:#231f20;fill-opacity:1;fill-rule:evenodd;stroke:none"
       d="m 115.7148,283.4297 c 2.146,1.943 -1.051,-5.629 -2,-7 -2.511,1.617 1.776,4.812 2,7 m 65,-30 c -0.022,2.356 1.723,2.944 1,6 l -4,0 c -0.319,-3.319 2.222,-3.778 3,-6 m 4,8 c 0.707,-5.04 -1.794,-6.872 -3,-10 -8.47,-2.9 -22.645,-1.958 -25,7 9.451,1.352 18.708,3.248 28,3 m -151,-172 c 2.288,0.637 6.032,1.983 8,0 -0.37,5.297 -4.496,6.838 -8,9 -0.009,-3.114 -2.365,-6.517 0,-9 m 155,3 c 5.061,-0.728 5.922,2.744 10,3 -0.595,2.071 1.236,6.569 -1,7 -2.749,-3.585 -6.496,-6.17 -9,-10 m 42,-1 c -6.326,-0.397 1.013,5.468 -2,7 -5.884,-4.724 -4.765,-14.92 -4,-24 7.907,-8.188 26.305,-6.585 35,0 -4.028,-0.695 -1.692,4.975 -4,6 -1.568,-2.099 -4.154,-3.18 -5,-6 -3.13,4.203 -5.582,9.085 -8,14 -2.495,-0.704 -4.109,-0.984 -6,1 0.045,4.67 4.989,12.67 1,15 -1.517,-5.15 -6.258,-7.075 -7,-13 m -183,15 c 2.651,-0.016 5.888,0.555 6,-2 -4.331,0.997 -5.549,-1.117 -8,-2 0.046,-6.287 7.758,-4.908 9,-10 -6.718,0.615 -9.291,5.376 -12,10 0.541,-3.541 -3.541,-2.459 -3,-6 3.215,-4.267 9.077,-0.696 11,-7 -2.356,-0.022 -2.944,1.723 -6,1 1.636,-2.67 2.842,-4.601 0,-7 l 6,0 c 2.704,5.421 9.988,16.51 11,17 -3.511,-1.761 -9.442,12.137 -14,6 m 195,0 c 3.457,0.877 6.564,2.103 8,5 -3.457,-0.877 -6.564,-2.103 -8,-5 m -172,-2 c -0.057,-0.61 -0.149,-1.184 -1,-1 -4.572,0.786 -8.831,7.136 -14,4 5.475,-0.011 8.758,-10.101 12,-6 -0.912,-9.652 -10.349,-18.421 -8,-31 -3.751,0.249 -2.237,5.763 -6,6 2.796,6.88 9.223,15.432 9,22 -6.645,-7.799 -9.75,-16.645 -12,-25 -2.501,2.402 -0.949,2.647 -1,7 -2.874,-1.396 -5.08,2.726 -6,0 4.097,-2.292 -3.19,-1.334 -3,-3 1.259,-2.74 6.204,-1.797 7,-5 -9.516,-2.832 -8.622,10.021 -14,8 4.397,-11.937 17.503,-15.164 35,-14 3.031,1.386 -0.25,2.834 3,4 9.603,-4.897 16.529,6.506 21,13 -2.813,12.188 -12.27,17.73 -22,23 3.311,3.098 8.217,-4.7 12,-1 -5.537,4.194 -12.34,8.354 -20,4 2.191,-2.142 5.918,-2.749 8,-5 m -31,5 c 0.779,-0.221 1.163,-0.837 1,-2 3.996,0.982 11.643,1.536 15,5 -6.048,-0.285 -13.889,1.222 -16,-3 m 213,2 c 3.225,-0.491 5.91,4.667 8,2 -0.222,-3.778 -5.142,-2.858 -6,-6 1.496,-0.171 3.69,0.357 4,-1 -0.954,-4.932 -6.673,-11.358 -7,-17 4.238,-0.107 5.829,6.193 9,4 -1.431,-5.585 -11.289,-8.022 -9,-14 3.373,1.654 6.968,8.328 11,6 -0.856,-3.144 -3.78,-4.22 -4,-8 8.195,-3.007 13.556,4.972 16,11 -1.177,0.156 -2.839,-0.172 -3,1 0.708,3.958 7.794,1.539 8,6 -0.097,1.933 -3.903,-1.729 -4,2 1.167,1.5 2.888,2.445 3,5 -3.911,0.756 -1.219,8.114 -4,10 -4.181,0.848 -3.959,-2.708 -6,-4 -0.776,5.555 -0.84,3.485 -4,6 1.833,1.166 3.386,2.614 5,4 -7.255,-0.744 -12.935,-3.065 -17,-7 m -179,9 c -1.554,1.445 -3.897,2.104 -6,3 -0.705,-3.117 5.202,-4.691 6,-3 m 171,20 c 0.866,2.191 5.702,5.555 4,7 -0.375,-2.683 -6.83,-4.427 -4,-7 m -40,0 c 5.198,-2.465 4.92,5.656 3,7 -1.92,-1.413 -1.81,-4.857 -3,-7 m 7,6 c 3.367,-0.633 5.128,-2.872 10,-2 1.105,3.189 -4.245,7.451 -7,10 -2.109,-1.558 -3.626,-3.707 -3,-8 m -24,1 c 1.363,2.347 6.524,6.084 4,9 -0.155,-3.556 -6.168,-6.44 -4,-9 m -55,-5 c -0.135,6.532 -2.14,11.193 -5,15 0.453,-6.214 0.5,-12.834 5,-15 m 70,7 c 0.291,3.419 5.056,7.553 3,10 -1.248,-2.157 -4.944,-11.164 -3,-10 m 24,-2 c -4.757,3.576 -6.59,10.077 -12,13 2.055,-5.626 8.493,-12.156 12,-13 m -28,4 c 0.947,2.752 7.875,8.956 3,11 -0.139,-3.899 -5.005,-8.277 -3,-11 m 25,7 c 0.58,1.953 -4.419,6.884 -6,10 0.178,-5.155 2.883,-7.784 6,-10 m -67,8 c 4.017,0.317 7.968,0.699 10,3 -3.638,-0.695 -8.62,-0.047 -10,-3 m 71,-7 c -1.089,3.938 -4.441,10.855 -7,10 3.038,-2.629 3.962,-7.371 7,-10 m -25,17 c -0.145,4.591 7.367,9.532 3,12 0.753,-5.12 -5.911,-8.044 -3,-12 m 24,0 c -2.926,6.408 -6.265,12.402 -10,18 0.224,-0.776 0.027,-1.973 1,-2 1.357,-5.793 8.681,-15.781 9,-16 m 7,20 c -2.447,0.887 -1.083,5.583 -5,5 -0.271,-3.004 3.65,-6.926 5,-5 m -30,4 c 0.579,2.133 3.441,5.447 0,6 -0.783,-0.694 -2.226,-5.58 0,-6 m -5,5 c -0.61,-0.057 -1.184,-0.149 -1,-1 2.955,-2.378 -0.955,-11.622 2,-14 3.286,5.287 -0.668,11.995 1,16 -0.221,-0.779 -0.837,-1.163 -2,-1 m 35,-25 c -4.105,8.624 -12.519,23.397 -15,27 3.936,-10.064 8.167,-19.833 15,-27 m -134,-2 c -15.524,7.332 -29.465,10.681 -36,26 -2.211,-11.789 -12.491,-15.509 -13,-29 2.561,-1.084 4.767,3.038 6,0 1.282,-4.406 -4.785,-4.097 -2,-7 25.003,-0.979 64.334,-4.102 71,-30 7.438,-3.229 6.886,-14.447 7,-25 l -4,0 c -0.819,-5.533 0.223,-6.624 -1,-10 -6.358,-0.309 -9.02,-4.313 -10,-10 3.417,-0.75 1.271,4.063 5,3 -0.482,-3.185 -3.148,-4.185 -3,-8 20.061,-5.12 44.619,0.442 64,0 0.88,3.213 -3.296,1.37 -3,4 5.438,4.229 11.108,8.226 16,13 -4.076,8.691 -2.87,22.677 5,29 -0.234,8.433 -3.005,14.328 -7,19 -0.02,-2.98 0.093,-6.093 -3,-6 1.043,5.664 -2.105,-4.286 -7,-2 4.412,13.843 13.85,22.177 14,38 0.06,6.327 -2.5,12.769 -2,21 -5.607,1.393 -6.365,7.635 -13,8 -0.522,-5.013 4.904,-10.798 0,-14 1.667,-1 0.708,-4.625 3,-5 -4.098,-4.523 -1.482,-10.696 -1,-16 -13.054,-11.855 -40.403,-17.007 -58,-13 4.723,-5.945 13.038,-22.217 4,-27 -5.687,5.646 -2.914,19.753 -9,25 l 3,0 c -6.985,8.015 -22.308,7.692 -30,15 -0.428,2.807 3.728,-2.506 4,1 m 101,29 c 2.485,1.793 1.89,5.559 0,8 -1.195,-1.738 -3.898,-7.072 0,-8 m 28,-2 c -5.133,3.201 -5.022,11.645 -9,16 -0.176,-3.672 5.886,-18.869 9,-16 m -31,8 c 0.77,1.313 4.555,7.729 0,8 -0.222,-1.873 -2.579,-6.627 0,-8 m 30,3 c -2.708,3.292 -2.835,9.165 -6,12 -0.933,-2.605 3.505,-12.902 6,-12 m -23,9 c -0.317,3.35 -1.03,6.304 -3,8 -0.271,-3.937 0.385,-6.948 3,-8 m 12,4 c -0.352,2.981 -0.578,6.089 -3,7 -1.758,-2.051 0.047,-6.604 3,-7 m -7,4 c 1.272,1.772 -0.396,7.009 -2,9 -0.155,-3.822 0.052,-7.282 2,-9 m 3,4 c 0.462,2.877 0.627,7.363 -3,8 0.711,-2.955 0.275,-7.059 3,-8 m -58,7 c -7.673,0.672 -14.741,7.243 -20,7 5.103,-3.242 12.171,-9.813 20,-7 m 56,7 c 2.572,-2.587 4.238,0.837 5,3 -2.333,-0.334 -4.309,-1.025 -5,-3 m -73,3 c 2.129,-0.604 6.368,-4.208 8,-2 -2.156,1.117 -5.829,6.991 -8,2 m 0,2 c -0.606,4.375 -2.178,4.808 -4,6 0.177,-3.156 0.703,-5.964 4,-6 m -31,18 c -0.908,2.759 -0.311,7.022 -2,9 -0.754,-3.729 -1.324,-7.2 2,-9 m -8,12 c -0.291,4.291 4.712,3.288 5,7 -3.401,3.42 -9.025,-6.097 -5,-7 m -3,21 c 2.465,-3.208 6.177,2.331 2,3 -0.239,-1.427 -1.647,-1.687 -2,-3 m 69,48 c 7.101,-0.899 15.016,-0.984 21,-3 -2.787,4.562 -15.007,4.973 -21,3 m -62,-65 c -2.325,-1.882 -1.935,-4.629 1,-6 1.375,1.283 1.741,5.979 -1,6 m 31,61 c 0.606,-1.727 4.743,0.077 5,-2 -9.775,-3.224 -15.003,-10.997 -21,-18 -1.892,1.108 -4.724,1.276 -7,2 -7.57,-5.59 -6.908,-14.055 -10,-23 0.319,-3.314 3.095,3.9 4,0 -2.627,-2.707 -6.8,-3.867 -7,-9 2.631,-2.337 3.791,2.86 7,3 -0.558,-2.442 -3.869,-2.131 -3,-6 4.674,1.646 1.906,-0.226 2,-4 6.265,0.764 -2.316,-3.398 3,-6 0.395,1.72 -1.484,2.563 0,3 2.783,-4.719 2.46,-10.138 6,-12 0.306,-2.306 -2.889,-1.111 -3,-3 0.529,-2.804 4.721,-1.946 5,-5 -4.667,-1.933 -4.394,6.183 -7,3 1.752,-1.915 2.12,-5.213 3,-8 8.094,0.251 8.502,13.481 14,13 -2.474,-3.546 -8.372,-8.934 -7,-13 2.115,4.237 6.297,11.678 10,11 -2.33,-2.697 -7.79,-7.507 -7,-10 2.554,2.112 2.788,6.546 7,7 -1.435,-4.662 6.549,-6.148 10,-9 -0.113,1.97 -4.979,7.304 0,8 -1.543,-9.876 9.567,-7.1 12,-13 -2.043,0.957 -3.957,2.043 -6,3 -1.666,-1.987 0.09,-1.271 0,-4 -1.763,0.873 -3.097,3.347 -4,0 8.168,-6.498 15.702,-13.631 28,-16 -8.612,-4.742 -21.446,-0.191 -29,1 6.103,-14.099 32.621,-21.12 41,-33 10.926,4.741 14.036,17.298 20,27 -0.272,2.062 -4.428,0.238 -4,3 2.464,3.536 5.446,6.554 6,12 -8.404,-2.145 -14.913,-6.352 -23,-11 0.043,1.376 -0.471,2.196 -1,3 6.196,1.804 11.869,4.131 15,9 -1.22,0.113 -2.368,0.299 -2,2 3.536,3.123 9.76,4.519 14,8 6.567,5.392 15.68,18.556 14,23 -0.96,-3.04 -3.825,-4.175 -6,-6 -0.224,-1.891 1.127,-2.206 1,-4 -2.691,-1.309 -4.813,-3.187 -6,-6 -1.122,0.211 -1.557,1.11 -2,2 3.542,9.458 13.683,12.317 13,26 -1.44,2.212 -2.44,-1.259 -3,1 4.567,4.48 2.794,9.159 7,14 -0.75,4.25 -4.672,5.328 -4,11 2.762,0.428 0.938,-3.728 3,-4 -1.43,14.57 -18.719,13.281 -25,23 0.716,5.413 -6.803,7.823 -10,6 2.263,-1.071 4.397,-2.27 6,-4 -14.881,10.51 -42.942,4.733 -59,5 m 153,-236 c 2.194,-2.771 -0.101,-9.857 -3,-15 0.31,-1.357 2.504,-0.83 4,-1 -0.469,-5.833 -7.976,-8.945 -8,-15 l -4,0 c -9.554,-18.674 -58.578,-28.711 -60,4 -17.336,4.618 -25.295,-4.962 -42,-6 2.039,-2.295 8.305,-0.362 12,-1 -25.266,-4.864 -51.067,-2.308 -77,1 -1.727,0.606 0.077,4.743 -2,5 -4.017,-1.65 -4.778,-6.556 -5,-12 -7.127,-2.872 -11.562,-8.438 -22,-8 -0.319,-2.652 5.602,0.936 4,-3 -8.55,-2.733 -19.021,0.493 -29,-2 -14.884,3.115 -22.421,13.579 -28,26 2.843,4.714 1.424,7.845 5,11 -20.121,20.741 -17.752,46.16 3,66 1.788,1.709 7.084,3.95 9,7 0.826,2.826 -1.409,2.591 -1,5 2.409,-0.409 2.174,1.826 5,1 0.327,15.007 8.776,21.891 15,31 -0.073,5.951 -1.79,13.237 -5,13 -2.992,11.646 0.604,24.223 3,34 5.594,1.787 5.19,8.164 8,12 4.506,6.152 13.206,8.733 15,17 10.507,1.632 13.258,16.798 5,20 3.665,5.146 4.345,7.072 4,16 5.538,3.795 10.227,8.44 14,14 -0.845,2.155 -4.387,1.614 -6,3 -4.062,12.028 4.305,14.15 8,21 9.588,6.223 17.79,-3.663 27,-6 3.666,-0.93 4.69,0.186 11,-1 1.117,1.23 0.871,2.054 -1,2 14.814,4.094 37.801,4.633 49,-3 10.323,2.344 16.03,9.304 30,8 6.374,-8.065 5.935,-24.751 0,-33 4.322,-7.391 9.083,-15.128 2,-22 0.437,-1.484 1.28,0.395 3,0 0.24,-9.715 3.238,-15.954 7,-27 1.778,-1.867 2.542,0.813 6,0 1.797,-3.536 4.464,-6.203 8,-8 4.188,-12.812 12.992,-21.008 13,-38 -5.501,-13.795 -1.585,-33.625 -2,-49 2.705,5.295 3.211,12.789 7,17 -3.318,-9.353 -6.237,-27.759 -10,-40 2.69,-2.31 6.669,-3.331 10,-5 -1.153,3.848 -7.89,2.109 -8,7 19.692,1.347 28.36,-23.028 22,-45 -3.614,-0.947 -1.395,3.938 -2,6 -5.104,-2.284 1.022,-5.704 0,-10 3.049,-0.049 5.092,0.908 6,3 m -112,39 c 4.261,-8.744 1.208,-30.118 2,-39 -4.614,9.053 -0.706,26.628 -2,39 m 5,74 c 3.247,1.087 1.459,7.208 7,6 0.656,-5.022 -1.257,-8.071 0,-11 -2.863,-0.197 -5.458,-0.125 -5,3 -1.566,-2.912 0.723,-8.713 -1,-11 -2.699,1.967 -6.056,3.277 -6,8 4.823,-6.173 1.625,7.746 0,10 1.907,0.426 1.81,2.857 5,2 -0.368,-1.701 0.78,-1.887 2,-2 -0.426,-1.907 -2.857,-1.81 -2,-5 m 8,49 c 0.113,1.22 0.299,2.368 2,2 0.022,-2.356 -1.723,-2.944 -1,-6 6.731,-0.026 0.933,11.805 -2,8 2.042,-0.188 -3.676,-3.263 1,-4 m 9,4 c -2.399,0.659 -6.184,5.073 -8,3 2.797,-0.26 5.64,-5.616 8,-3 m 1,19 c -0.225,4.108 -2.48,6.186 -5,8 2.333,-3.709 2.75,-6.104 5,-8 m 2,-23 c -3.056,-0.723 -3.644,1.022 -6,1 -3.244,-1.733 2.598,-2.62 1,-6 -5.048,4.318 -2.104,-6.04 -6,-6 -2.54,13.46 -7.897,24.103 -12,36 2.623,1.744 9.185,0.143 6,5 18.482,12.252 26.654,-17.927 17,-30 m -66,3 c 0.689,12.051 7.468,30.675 17,30 5.119,-0.363 13.324,-7.295 14,-12 1.706,-11.867 -18.174,-20.573 -31,-18 m -12,5 c 2.164,0.944 -2.972,-6.623 -4,-9 -1.406,1.798 2.704,6.586 4,9"
       inkscape:connector-curvature="0" /><g
       transform="scale(0.74824934,-1.3364529)"
       style="font-size:115.19999695px;font-style:normal;font-variant:normal;font-weight:normal;font-stretch:normal;text-align:start;line-height:125%;writing-mode:lr-tb;text-anchor:start;font-family:Britannic Bold;-inkscape-font-specification:'Britannic Bold,'"
       id="text3266"><path
         d="m 256.00849,-73.679214 0,-76.781246 33.13125,0 c 18.78744,7e-5 28.18118,7.51882 28.18125,22.55625 -7e-5,15.18754 -10.44381,22.78128 -31.33125,22.78125 l -7.70625,0 0,31.443746 -22.275,0 m 22.275,-38.531246 5.00625,0 c 8.09995,4e-5 12.14995,-5.36246 12.15,-16.0875 -5e-5,-10.04994 -4.05005,-15.07493 -12.15,-15.075 l -5.00625,0 0,31.1625"
         style="fill:#df501e;fill-opacity:1;fill-rule:nonzero;stroke:none;font-family:Britannic Bold;-inkscape-font-specification:'Britannic Bold,'"
         id="path5324" /><path
         d="m 355.31175,-150.46046 21.375,76.781246 -22.3875,0 -4.55625,-16.65 -23.11874,0 -4.89375,16.65 -8.71875,0 22.72499,-76.781246 19.575,0 m -26.49375,52.424996 18.84375,0 -9.05625,-34.031246 -9.7875,34.031246"
         style="fill:#df501e;fill-opacity:1;fill-rule:nonzero;stroke:none;font-family:Britannic Bold;-inkscape-font-specification:'Britannic Bold,'"
         id="path5326" /></g><g
       transform="scale(0.74824934,-1.3364529)"
       style="font-size:115.19999695px;font-style:normal;font-variant:normal;font-weight:normal;font-stretch:normal;text-align:start;line-height:125%;letter-spacing:0px;writing-mode:lr-tb;text-anchor:start;font-family:Britannic Bold;-inkscape-font-specification:'Britannic Bold,'"
       id="text5304"><path
         d="m 443.40146,-150.46046 0,76.781246 -17.04375,0 -32.0625,-48.599996 0,48.599996 -7.48125,0 0,-76.781246 14.11875,0 34.9875,52.481246 0,-52.481246 7.48125,0"
         style="fill:#231f20;fill-opacity:1;fill-rule:nonzero;stroke:none;font-family:Britannic Bold;-inkscape-font-specification:'Britannic Bold,'"
         id="path5311" /><path
         d="m 455.68228,-73.679214 0,-76.781246 31.8375,0 c 22.61244,7e-5 33.91867,12.82506 33.91875,38.475 -8e-5,25.537509 -11.71881,38.306246 -35.15625,38.306246 l -30.6,0 m 22.275,-6.35625 5.85,0 c 5.36246,6e-6 9.07495,-2.306242 11.1375,-6.91875 2.06245,-4.649982 3.0937,-13.031223 3.09375,-25.143746 -5e-5,-12.11245 -1.0313,-20.47494 -3.09375,-25.0875 -2.02505,-4.61243 -5.73754,-6.91868 -11.1375,-6.91875 l -5.85,0 0,64.068746"
         style="fill:#231f20;fill-opacity:1;fill-rule:nonzero;stroke:none;font-family:Britannic Bold;-inkscape-font-specification:'Britannic Bold,'"
         id="path5313" /><path
         d="m 569.06028,-150.46046 21.375,76.781246 -22.3875,0 -4.55625,-16.65 -23.11875,0 -4.89375,16.65 -8.71875,0 22.725,-76.781246 19.575,0 m -26.49375,52.424996 18.84375,0 -9.05625,-34.031246 -9.7875,34.031246"
         style="fill:#231f20;fill-opacity:1;fill-rule:nonzero;stroke:none;font-family:Britannic Bold;-inkscape-font-specification:'Britannic Bold,'"
         id="path5315" /><path
         d="m 641.37369,-115.81046 -9.95625,1.74375 c -4e-5,-8.47495 -3.93754,-12.71245 -11.8125,-12.7125 -4.83753,5e-5 -7.25627,1.98755 -7.25625,5.9625 -2e-5,2.92504 4.16247,6.07504 12.4875,9.45 12.74995,5.21253 19.12494,11.831272 19.125,19.856246 -6e-5,12.787505 -8.1188,19.181248 -24.35625,19.181249 -17.17501,-10e-7 -25.7625,-6.393744 -25.7625,-19.181249 l 10.575,-2.1375 c -0.15001,1.237519 -0.22501,2.400018 -0.225,3.4875 -1e-5,3.300013 1.36873,6.16876 4.10625,8.60625 2.77498,2.437505 6.03748,3.656254 9.7875,3.65625 4.94997,4e-6 7.42496,-2.099994 7.425,-6.3 -4e-5,-2.812487 -3.99378,-5.924984 -11.98125,-9.3375 -12.03751,-5.174975 -18.05626,-11.812466 -18.05625,-19.912496 -1e-5,-5.36246 2.30624,-9.74995 6.91875,-13.1625 4.61248,-3.44995 10.53748,-5.17494 17.775,-5.175 12.86246,6e-5 19.9312,5.32505 21.20625,15.975"
         style="fill:#231f20;fill-opacity:1;fill-rule:nonzero;stroke:none;font-family:Britannic Bold;-inkscape-font-specification:'Britannic Bold,'"
         id="path5317" /><path
         d="m 693.76796,-94.435464 8.26875,2.41875 c -0.86256,13.087505 -8.58755,19.631248 -23.175,19.631249 -18.90001,-10e-7 -28.35,-9.431241 -28.35,-28.293745 0,-9.14997 2.51249,-16.64996 7.5375,-22.5 5.02498,-5.84995 11.45623,-8.77494 19.29375,-8.775 16.38745,6e-5 24.58119,10.57504 24.58125,31.725 l -29.925,0 c -3e-5,14.850008 3.76872,22.275 11.30625,22.274996 7.04995,4e-6 10.57495,-4.199992 10.575,-12.6 -5e-5,-1.124982 -0.0376,-2.418731 -0.1125,-3.88125 m -21.825,-12.149996 12.2625,0 c -4e-5,-13.19996 -1.98754,-19.79995 -5.9625,-19.8 -3.60003,5e-5 -5.62503,4.89379 -6.075,14.68125 l -0.225,5.11875"
         style="fill:#231f20;fill-opacity:1;fill-rule:nonzero;stroke:none;font-family:Britannic Bold;-inkscape-font-specification:'Britannic Bold,'"
         id="path5319" /><path
         d="m 764.6309,-130.37921 0,75.881245 -20.53125,0 0,-25.256249 c -4.01253,4.912501 -8.45628,7.368748 -13.33125,7.368749 -13.42501,-10e-7 -20.1375,-9.356241 -20.1375,-28.068745 0,-20.96246 7.83749,-31.44369 23.5125,-31.44375 7.31247,6e-5 14.17496,3.6563 20.5875,10.96875 l 4.89375,-9.45 5.00625,0 m -26.83125,7.875 c -3.90003,5e-5 -5.85002,5.70004 -5.85,17.1 -2e-5,16.500011 1.89372,24.750003 5.68125,24.749996 4.64997,7e-6 6.97496,-7.481236 6.975,-22.443746 -4e-5,-12.93746 -2.26878,-19.4062 -6.80625,-19.40625"
         style="fill:#231f20;fill-opacity:1;fill-rule:nonzero;stroke:none;font-family:Britannic Bold;-inkscape-font-specification:'Britannic Bold,'"
         id="path5321" /></g></g></svg>
